<svg xmlns="http://www.w3.org/2000/svg" xmlns:xlink="http://www.w3.org/1999/xlink" width="1920" height="370" viewBox="0 0 1920 370"><defs><style>.a{fill:none;}.b{clip-path:url(#a);}.c{fill:#00005f;}.d{mix-blend-mode:color-dodge;isolation:isolate;fill:url(#b);}.e{fill:url(#c);}.f{fill:url(#d);}.g{fill:url(#e);}.h{opacity:0.8;fill:url(#f);}.i,.j{opacity:0.44;}.i{fill:url(#g);}.j{fill:url(#h);}.k{fill:url(#i);}.l{fill:url(#j);}.m{fill:url(#k);}</style><clipPath id="a"><rect class="a" width="1920" height="370" transform="translate(-169.502 706.48)"/></clipPath><linearGradient id="b" y1="0.5" x2="1" y2="0.5" gradientUnits="objectBoundingBox"><stop offset="0" stop-color="#fefaf0"/><stop offset="0.046" stop-color="#e4e0d7"/><stop offset="0.15" stop-color="#afaca5"/><stop offset="0.259" stop-color="#807e79"/><stop offset="0.37" stop-color="#585753"/><stop offset="0.483" stop-color="#383735"/><stop offset="0.599" stop-color="#1f1f1d"/><stop offset="0.721" stop-color="#0d0d0d"/><stop offset="0.85" stop-color="#030303"/><stop offset="1"/></linearGradient><linearGradient id="c" y1="0.5" x2="1" y2="0.5" gradientUnits="objectBoundingBox"><stop offset="0" stop-color="#00005f"/><stop offset="0.231" stop-color="#1e0072"/><stop offset="0.563" stop-color="#45008b"/><stop offset="0.83" stop-color="#5d009b"/><stop offset="0.995" stop-color="#6600a1"/></linearGradient><linearGradient id="d" x1="0.407" y1="0.731" x2="0.698" y2="-0.001" gradientUnits="objectBoundingBox"><stop offset="0" stop-color="#fd0"/><stop offset="0.091" stop-color="#ffc115"/><stop offset="0.338" stop-color="#ff7d4a"/><stop offset="0.56" stop-color="#ff4774"/><stop offset="0.751" stop-color="#ff2092"/><stop offset="0.903" stop-color="#ff08a5"/><stop offset="0.997" stop-color="#ff00ac"/></linearGradient><linearGradient id="e" x1="0.974" y1="0.187" x2="-0.221" y2="0.869" gradientUnits="objectBoundingBox"><stop offset="0" stop-color="#00005f"/><stop offset="0.181" stop-color="#3d0071"/><stop offset="0.403" stop-color="#810086"/><stop offset="0.603" stop-color="#b70096"/><stop offset="0.776" stop-color="#de00a2"/><stop offset="0.913" stop-color="#f600a9"/><stop offset="0.997" stop-color="#ff00ac"/></linearGradient><linearGradient id="f" x1="0.467" y1="0.435" x2="0.326" y2="-0.128" gradientUnits="objectBoundingBox"><stop offset="0" stop-color="#00005f"/><stop offset="0.126" stop-color="#140c79"/><stop offset="0.417" stop-color="#4027b2"/><stop offset="0.666" stop-color="#613bdb"/><stop offset="0.862" stop-color="#7447f4"/><stop offset="0.981" stop-color="#7c4cfe"/><stop offset="0.986" stop-color="#474cfe"/><stop offset="0.991" stop-color="#204cfe"/><stop offset="0.995" stop-color="#084cfe"/><stop offset="0.997" stop-color="#004cff"/></linearGradient><linearGradient id="g" x1="0" y1="0.5" x2="1" y2="0.5" xlink:href="#d"/><linearGradient id="h" x1="-0.64" y1="1.401" x2="0.318" y2="1.401" xlink:href="#d"/><linearGradient id="i" x1="0.345" y1="-0.028" x2="0.695" y2="1.167" xlink:href="#d"/><linearGradient id="j" x1="0.321" y1="-0.254" x2="0.555" y2="0.733" gradientUnits="objectBoundingBox"><stop offset="0" stop-color="#fd0"/><stop offset="0.094" stop-color="#fad207"/><stop offset="0.256" stop-color="#efb71b"/><stop offset="0.464" stop-color="#dd8b3b"/><stop offset="0.712" stop-color="#c44d68"/><stop offset="0.992" stop-color="#a400a2"/></linearGradient><linearGradient id="k" x1="0.5" y1="0.935" x2="0.5" y2="0.013" xlink:href="#d"/></defs><g transform="translate(169.502 -706.48)"><g class="b"><rect class="c" width="1920" height="370" transform="translate(-169.502 706.48)"/><path class="d" d="M329.5,732.077c-9.534,33.048-5.267,71.215,16.56,97.8,8.528,10.385,19.366,18.716,27.679,29.273a80.981,80.981,0,0,1,16.939,42.805c1.221,14.075-2.257,29.934-13.881,37.965-17.041,11.774-39.814.969-58.654-7.64-49.185-22.476-114.111-25.543-151.205,13.806-21.517,22.825-29.354,55.491-30.654,86.832s3.07,62.7,2.044,94.049a274.07,274.07,0,0,1-17.578,87.909c-9.738,25.716-23.64,52.509-17.2,79.241,7.49,31.083,39.372,49.172,69.072,61.011a573.527,573.527,0,0,0,165.088,38.766c42.334,3.479,85.389,2.18,126.6-8.094,50.6-12.614,96.853-38.277,141.931-64.494,44.366-25.8,89.423-53.446,120.067-94.617,52.363-70.352,52.836-165.352,49.7-253-1.906-53.2-4.345-106.51-12.276-159.155-11.66-77.4-38.183-157.541-98.778-207.088-41.433-33.877-96.952-50.2-150.028-43.33a193.036,193.036,0,0,0-116.422,60.61C371.575,654.173,340.6,693.6,329.5,732.077Z"/><path class="e" d="M959.728,775.171A262.994,262.994,0,0,1,1092.162,814.2c33.505,20.714,64.356,49.814,103.442,54.707,33.534,4.2,67.546-10.54,100.876-4.949,49.294,8.269,80.173,56.514,121.685,84.355a161.107,161.107,0,0,0,85.075,27.079c12.148.311,24.56-.824,35.738-5.59,26.682-11.376,41.288-41.965,41.407-70.972s-11.65-56.7-25.095-82.4c-43.005-82.217-106.223-154.507-184.87-203.74s-172.878-74.653-265.308-66.542c-37.721,3.311-75.463,12.287-108.355,31.048-23.753,13.55-44.493,31.917-62.883,52.156-27.715,30.5-50.644,65.983-62.7,105.393-5.774,18.872-14.937,61.744,13.687,60.154,10.058-.558,23.933-12.411,34.335-15.274C932.29,776.014,946.188,774.908,959.728,775.171Z"/><path class="f" d="M-18.575,958.121C-2.71,960.343,12.951,962.383,27,970.078a384.077,384.077,0,0,1,34.709,21.477c17.913,12.447,35.916,26.9,57.561,29.6,24.382,3.037,47.94-9.641,67.622-24.349s37.96-32.142,60.8-41.194,52.556-7.109,67.493,12.4c4.216,5.506,7.021,12.265,6.97,19.2-.08,10.911-6.914,20.416-12.587,29.736-9.285,15.254-16.092,34.5-8.5,50.66,4.009,8.544,11.455,14.861,18.048,21.613,46.072,47.179,51.62,128.4,12.393,181.407s-118.524,71.438-177.108,41.167c-48.726-25.177-82.735-78.606-136.6-88.953-19.033-3.656-38.77-1.375-57.923-4.337-35.123-5.433-66.771-29.646-81.2-62.125-17.9-40.292-34.833-97.185-7.447-130.025C-105.263,998.167-88.27,948.357-18.575,958.121Z"/><path class="g" d="M1508.553,925.45c21.156,38.5,63.076,63.556,79.5,104.3a97.85,97.85,0,0,1-7.2,86.277c-9.3,15.178-22.628,27.506-32.507,42.315-27.15,40.7-21.947,101.608,15.357,133.257,16.932,14.365,38.533,22.132,60.242,26.8,19.971,4.291,40.817,6.176,60.788,1.884,38.71-8.319,69.653-39.352,86.555-75.157s21.611-76.083,23.48-115.633c4.864-102.925-9.682-211.016-68.11-295.889-9.7-14.084-20.638-27.52-34.147-38-11.5-8.921-24.629-15.527-38.078-21.089-42.458-17.559-118.977-31.437-151.524,13.231C1478.778,820.857,1490.82,893.177,1508.553,925.45Z"/><path class="h" d="M253.421,1092.6c38.115-8.04,77.515,5.8,111.835,24.231,15.625,8.389,30.927,17.858,48,22.67s36.7,4.3,51.005-6.189,20.318-32.745,9.457-46.765c-7.1-9.169-18.982-12.82-29.5-17.7s-21.355-13.265-21.684-24.858c-.3-10.733,8.584-19.414,17.6-25.244,35.617-23.033,82.309-23.68,122.612-10.461s75.324,38.8,107.944,65.907,63.809,56.312,99.844,78.684c13.879,8.617,28.752,16.458,39.18,29.032,17.016,20.514,18.9,50.121,12.7,76.041-14.829,61.9-68.6,107.1-125.213,136.2-80.253,41.266-170.97,59.074-261.127,62.969-26.691,1.153-53.592,1.118-79.919-3.424-53.134-9.166-101.278-36.1-148.233-62.607-13.419-7.573-27.238-15.492-36.459-27.836-10.216-13.675-13.578-31.126-16.659-47.915-4.3-23.416-8.612-47.038-7.965-70.835C148.505,1182.816,188.251,1106.351,253.421,1092.6Z"/><path class="i" d="M1313.924,764.9c15.5,22.568,24.3,49.017,37.892,72.778,12.663,22.128,29.8,42.092,51.495,55.475s48.2,19.776,73.223,14.87c24.921-4.886,49.431-20.552,73.869-13.643,12.724,3.6,22.927,12.845,34.2,19.75,21.046,12.889,47.143,17.68,71.161,12.006s45.526-22.037,56.426-44.179c5.039-10.235,7.818-21.441,9.686-32.7a221.134,221.134,0,0,0-7.5-103.141,262.922,262.922,0,0,0-26.985-57.505c-12.254-19.889-26.841-38.638-45.211-53.069-18.483-14.519-40.23-24.249-62.124-32.795-74.066-28.91-156.666-45.815-233.015-23.627-26.389,7.669-51.236,19.782-75.933,31.836-21.564,10.525-43.5,21.308-60.855,37.882-8.631,8.245-28.632,29.552-22.619,42.98,5.89,13.152,30.8,11.925,42.474,15C1263.629,715.64,1294.24,736.231,1313.924,764.9Z"/><path class="j" d="M1321.6,797.518c23.2,14.53,41.807,35.286,63.742,51.667,20.427,15.254,44.093,26.743,69.327,30.377s52.093-1.058,73.088-15.522c20.913-14.407,37.157-38.538,62.324-41.933,13.1-1.768,26.147,2.651,39.241,4.494,24.438,3.44,50.284-2.558,70.055-17.328s32.984-38.346,34.164-63c.545-11.395-1.368-22.781-4.136-33.848a221.154,221.154,0,0,0-47.96-91.621,262.934,262.934,0,0,0-47.655-42c-19.161-13.364-40.008-24.752-62.6-30.673-22.736-5.957-46.559-6.221-70.046-5.341-79.452,2.979-161.952,20.369-223.148,71.128-21.152,17.545-39.119,38.551-56.972,59.443-15.588,18.243-31.419,36.871-40.734,58.985-4.634,11-14.494,38.51-3.631,48.432,10.641,9.718,33-1.329,44.933-3.16C1255.842,772.362,1292.121,779.06,1321.6,797.518Z"/><circle class="k" cx="18.625" cy="18.625" r="18.625" transform="translate(339.028 987.76)"/><circle class="l" cx="104.995" cy="104.995" r="104.995" transform="translate(-272.753 998.604) rotate(-45)"/><circle class="m" cx="57.747" cy="57.747" r="57.747" transform="translate(1371.78 675.178)"/><circle class="k" cx="11.249" cy="11.249" r="11.249" transform="translate(-289.285 950.413) rotate(-45)"/><rect class="a" width="750" height="500" transform="translate(890.945 752.071)"/></g></g></svg>